<?xml version="1.0" encoding="UTF-8" standalone="no"?>
<!-- Designed by Vexels.com - 2020 All Rights Reserved - https://vexels.com/terms-and-conditions/  -->

<svg
   version="1.1"
   id="Capa_1"
   x="0px"
   y="0px"
   viewBox="0 0 1200 2000"
   enable-background="new 0 0 1200 1200"
   xml:space="preserve"
   sodipodi:docname="poppy-flower-line-drawing-design-by-Vexels.svg"
   width="1200"
   height="2000"
   inkscape:version="1.2.2 (b0a8486541, 2022-12-01)"
   xmlns:inkscape="http://www.inkscape.org/namespaces/inkscape"
   xmlns:sodipodi="http://sodipodi.sourceforge.net/DTD/sodipodi-0.dtd"
   xmlns="http://www.w3.org/2000/svg"
   xmlns:svg="http://www.w3.org/2000/svg"><defs
   id="defs7" /><sodipodi:namedview
   id="namedview5"
   pagecolor="#ffffff"
   bordercolor="#000000"
   borderopacity="0.25"
   inkscape:showpageshadow="2"
   inkscape:pageopacity="0.0"
   inkscape:pagecheckerboard="0"
   inkscape:deskcolor="#d1d1d1"
   showgrid="false"
   inkscape:zoom="0.16381307"
   inkscape:cx="-1159.8586"
   inkscape:cy="1169.0154"
   inkscape:window-width="1329"
   inkscape:window-height="743"
   inkscape:window-x="37"
   inkscape:window-y="0"
   inkscape:window-maximized="1"
   inkscape:current-layer="Capa_1" />
<path
   fill="#382424"
   d="m 893.493,377.153 c -14.408,-7.857 -30.899,-7.436 -47.499,-5.293 2.652,-1.083 5.211,-2.356 7.667,-3.822 14.288,-8.522 23.886,-23.228 25.051,-38.379 0.816,-10.609 -4.728,-21.991 -12.07,-33.953 16.141,-6.017 29.12,-16.013 36.343,-32.269 19.966,-44.922 -19.719,-73.777 -34.659,-84.641 -9.246,-6.725 -17.52,-8.422 -24.599,-5.052 -11.046,5.262 -17.178,22.361 -18.752,52.271 -1.206,22.938 12.894,44.588 25.351,63.694 -18.421,4.035 -41.721,4.505 -69.313,3.406 -40.001,-1.609 -57.066,1.63 -78.626,12.101 -13.389,-13.797 -21.085,-28.996 -15.499,-44.16 10.686,-29.007 48.292,-43.936 78.511,-55.932 7.896,-3.134 15.353,-6.094 21.745,-9.077 18.908,-8.825 28.247,-18.449 27.751,-28.601 -0.475,-9.726 -9.97,-17.925 -28.224,-24.366 -37.498,-13.233 -47.692,-4.112 -71.662,24.212 -7.811,9.231 -13.389,13.569 -17.558,13.656 -0.044,0.003 -0.087,0.003 -0.131,0.003 -5.917,0 -13.546,-8.286 -25.046,-20.78 -1.586,-1.722 -3.25,-3.53 -5,-5.416 -21.747,-23.418 -37.863,-33.943 -66.875,-32.526 2.788,-15.51 2.749,-29.584 -2.231,-40.255 -6.669,-14.293 -23.182,-25.136 -45.304,-29.751 -23.539,-4.9 -57.005,-2.829 -80.318,17.735 -14.711,12.981 -22.561,29.936 -22.702,49.032 -0.026,3.376 0.195,6.797 0.655,10.247 -7.098,-0.865 -13.456,-1.838 -18.811,-2.842 -19.645,-3.696 -24.797,5.106 -29.782,13.61 -4.913,8.381 -11.03,18.811 -34.436,25.636 -49.083,14.316 -81.594,27.094 -86.135,72.481 -2.611,26.132 0.824,58.845 18.302,72.293 5.742,4.42 15.602,8.553 29.962,3.17 16.429,-6.161 48.161,-5.239 76.149,-4.431 25.854,0.755 42.805,1.049 52.016,-2.009 -5.778,4.63 -12.952,7.786 -22.511,10.21 -16.144,4.092 -34.441,8.733 -51.365,24.53 -50.867,47.471 -64.503,92.18 -37.411,122.657 18.844,21.195 32.39,18.302 38.787,14.678 13.253,-7.496 18.236,-30.639 11.346,-52.69 -8.984,-28.745 34.485,-57.58 34.924,-57.867 2.428,-1.589 3.111,-4.846 1.525,-7.277 -1.589,-2.428 -4.846,-3.109 -7.272,-1.527 -2.069,1.35 -50.564,33.481 -39.213,69.809 5.75,18.395 1.196,36.058 -6.487,40.401 -6.181,3.499 -15.571,-1.063 -25.749,-12.514 -31.16,-35.052 9.634,-82.7 36.723,-107.985 14.953,-13.954 31.861,-18.241 46.778,-22.025 15.03,-3.812 26.988,-9.724 36.078,-22.225 7.524,-10.345 19.578,-17.124 27.554,-21.611 7.221,-4.061 13.819,-4.2 12.764,-9.241 -1.06,-5.062 -6.99,-5.655 -10.915,-6.048 -18.002,-1.781 -28.912,9.559 -38.53,19.589 -2.96,3.085 -5.755,5.999 -8.604,8.376 -4.305,3.589 -29.715,2.852 -50.13,2.259 -28.966,-0.834 -61.789,-1.789 -80.146,5.093 -8.012,3.011 -14.508,2.462 -19.861,-1.656 -11.408,-8.779 -17.134,-34.061 -14.249,-62.914 3.594,-35.925 26.119,-48.123 78.613,-63.435 27.418,-7.996 35.016,-20.952 40.563,-30.411 4.659,-7.94 6.399,-10.917 18.777,-8.594 6.921,1.296 14.655,2.457 22.967,3.419 5.709,20.972 19.719,42.437 40.36,61.199 27.957,25.416 28.617,31.278 29.926,42.961 0.811,7.218 1.82,16.2 7.86,31.299 17.579,43.949 120.09,81.614 171.902,79.494 27.169,-1.135 29.479,1.263 35.054,7.057 4.628,4.803 10.964,11.379 28.468,19.257 22.258,10.014 45.351,6.374 67.683,2.854 20.192,-3.186 39.267,-6.186 54.484,2.113 17.987,9.811 22.754,27.708 19.573,40.186 -2.367,9.274 -8.741,14.811 -17.055,14.811 -23.005,0 -28.239,6.918 -38.671,20.697 -3.668,4.846 -8.232,10.879 -14.683,18.133 -11.965,13.461 -27.587,21.17 -42.891,21.17 h -0.18 c -12.522,-0.049 -24.045,-5.362 -32.444,-14.963 -5.442,-6.217 -8.995,-12.185 -12.429,-17.956 -9.639,-16.19 -17.964,-30.172 -59.484,-30.172 -19.696,0 -44.976,-4.859 -66.138,-10.283 42.111,2.064 88.481,-5.545 106.922,-23.988 4.392,-4.392 8.163,-9.138 6.035,-14.087 -2.503,-5.817 -9.824,-5.614 -21.978,-5.285 -13.944,0.385 -33.034,0.904 -46.847,-7.385 l -3.63,-2.182 c -33.265,-20.007 -95.178,-57.264 -138.452,-54.155 -10.643,0.76 -21.855,2.57 -24.335,10.222 -2.801,8.653 7.221,17.052 21.09,28.681 5.919,4.959 12.627,10.584 18.436,16.393 15.766,15.766 13.356,22.623 1.769,55.572 -4.295,12.206 -9.636,27.397 -15.456,47.353 -19.678,67.47 -115.29939,390.25324 -144.60226,541.7486 -28.36746,175.0946 -75.13147,319.995 -66.58089,558.2385 7.67101,213.7362 8.97505,206.3367 8.97505,206.3367 l 3.00158,10.0855 c 0,0 -2.42925,-53.4015 -2.13809,-56.6942 -0.55573,-56.5731 -2.32336,-125.716 -2.3523,-174.5837 -0.14,-236.435 33.808,-347.2835 72.98994,-540.752 C 422.04786,862.31484 518.224,548.874 537.702,482.084 c 5.74,-19.678 11.03,-34.721 15.281,-46.806 11.782,-33.512 16.192,-46.049 -4.253,-66.495 -6.135,-6.138 -13.03,-11.916 -19.116,-17.016 -7.059,-5.919 -16.621,-13.934 -17.694,-17.33 0.896,-0.621 4.217,-2.262 14.935,-3.026 40.004,-2.898 100.017,33.268 132.281,52.677 l 3.64,2.187 c 16.444,9.865 38.171,9.285 52.546,8.879 3.227,-0.087 6.939,-0.182 9.677,-0.09 -0.406,0.447 -0.886,0.95 -1.456,1.52 -20.333,20.338 -87.202,25.885 -131.164,17.096 -12.139,-2.426 -15.451,-2.3 -17.733,0.665 -1.291,1.684 -1.504,3.925 -0.554,5.853 4.366,8.864 79.17,28.606 116.101,28.606 35.545,0 41.154,9.423 50.449,25.036 3.506,5.889 7.48,12.563 13.554,19.504 10.414,11.9 24.73,18.49 40.314,18.551 h 0.221 c 18.305,0 36.792,-8.992 50.751,-24.697 6.723,-7.565 11.428,-13.782 15.207,-18.775 10.109,-13.356 12.511,-16.529 30.288,-16.529 13.23,0 23.667,-8.71 27.243,-22.728 4.151,-16.291 -1.814,-39.514 -24.727,-52.013 z M 835.474,226.57 c 1.815,-34.482 9.539,-41.79 12.776,-43.333 0.896,-0.429 1.889,-0.642 2.978,-0.642 2.955,0 6.61,1.574 10.915,4.703 23.608,17.17 45.784,39.133 31.237,71.867 -6.112,13.749 -17.075,22.417 -32.411,27.621 -0.596,-0.916 -1.196,-1.838 -1.797,-2.759 -11.589,-17.774 -24.724,-37.92 -23.698,-57.457 z M 460.358,119.068 c 0.118,-16.02 6.738,-30.277 19.144,-41.223 16.806,-14.829 44.768,-20.857 71.213,-15.327 18.569,3.874 32.747,12.809 37.924,23.904 4.207,9.015 3.74,22.145 0.744,36.841 -5.439,0.721 -11.307,1.776 -17.689,3.165 -35.037,7.611 -78.074,7.067 -110.392,3.979 -0.653,-3.833 -0.972,-7.619 -0.944,-11.339 z m 80.27,152.634 c -5.511,-13.777 -6.433,-21.976 -7.172,-28.565 -1.674,-14.899 -3.66,-22.62 -33.301,-49.566 -17.879,-16.254 -30.357,-34.479 -36.143,-52.269 34.559,3.07 76.283,2.711 109.917,-4.603 4.577,-0.993 8.846,-1.812 12.845,-2.449 -6.243,23.308 -17.135,48.785 -25.079,67.37 -2.236,5.229 -4.31,10.083 -6.102,14.431 -7.157,17.381 -6.707,28.881 -3.943,36.317 -3.565,11.23 -1.391,23.59 6.605,34.659 6.122,8.479 13.977,16.038 22.882,22.466 -19.761,-11.289 -35.142,-24.371 -40.509,-37.791 z m 34.79,-28.555 c -2.3,3.219 -4.364,7.757 -4.872,13.959 -2.752,-0.916 -5.334,-2.464 -7.213,-4.99 -0.067,-0.087 -0.128,-0.175 -0.193,-0.264 1.147,-2.282 2.657,-4.492 4.531,-6.602 4.388,-4.944 10.6,-8.884 18.021,-11.358 -4.184,2.367 -7.622,5.546 -10.274,9.255 z m 28.71,-4.243 c 1.34,0 2.729,0.059 4.161,0.18 2.433,0.203 2.871,3.34 3.557,3.625 -2.079,4.2 -16.033,14.098 -29.261,15.42 -0.501,0.051 -1.04,0.095 -1.615,0.128 0.254,-3.53 1.253,-6.548 3.001,-8.992 3.555,-4.97 11.211,-10.361 20.157,-10.361 z m -19.969,44.655 c -1.725,-3.945 -1.297,-11.415 -2.121,-14.835 0.526,-0.036 1.058,-0.08 1.594,-0.133 15.104,-1.512 39.072,-14.295 38.969,-26.594 -0.019,-2.389 -1.326,-6.728 -6.001,-9.611 7.625,1.498 15.602,4.313 23.674,8.797 15.325,8.512 23.023,19.817 22.266,32.693 -0.315,5.353 -2.099,10.472 -4.708,14.963 0.341,-3.341 -0.61,-7.013 -2.307,-9.731 -3.791,-6.066 -10.391,-8.966 -18.082,-7.983 -9.903,1.276 -19.091,8.61 -21.845,17.443 -0.552,1.769 -1.029,4.207 -0.827,7.039 -0.365,-0.015 -0.734,-0.036 -1.104,-0.059 -8.026,-0.502 -24.02,0.556 -29.508,-11.989 z m 62.435,2.69 c -1.992,3.342 -10.422,7.457 -21.296,8.892 -0.133,-1.145 -0.023,-2.292 0.336,-3.445 1.54,-4.936 7.316,-9.393 13.153,-10.145 0.552,-0.069 1.081,-0.105 1.586,-0.105 2.798,0 4.89,1.083 6.233,3.232 0.368,0.586 0.409,0.863 -0.012,1.571 z m -33.583,19.792 c 1.892,0.118 3.84,0.144 5.822,0.105 1.068,1.448 2.385,2.911 4.004,4.366 5.976,5.38 14.406,6.412 23.121,2.834 12.316,-5.057 25.993,-20.392 27.079,-38.854 0.578,-9.814 -2.249,-28.386 -27.654,-42.499 -36.276,-20.151 -69.193,-11.346 -84.895,5.527 0.536,-5.077 2.151,-10.961 4.828,-17.463 1.774,-4.31 3.83,-9.12 6.045,-14.301 9.426,-22.05 20.777,-48.605 26.753,-72.879 27.179,-2.066 40.951,6.954 61.453,29.035 1.74,1.874 3.393,3.668 4.97,5.38 13.836,15.03 22.253,24.173 32.755,24.173 0.126,0 0.252,-0.003 0.38,-0.005 7.709,-0.162 15.055,-5.196 25.362,-17.376 21.734,-25.677 27.572,-32.585 60.136,-21.09 13.058,4.608 20.99,10.201 21.224,14.965 0.095,1.933 -1.191,8.99 -21.696,18.559 -6.112,2.852 -13.43,5.758 -21.177,8.833 -32.161,12.768 -72.188,28.658 -84.499,62.069 -6.915,18.777 1.109,36.764 15.748,52.749 -3.553,1.912 -7.295,3.997 -11.331,6.266 -23.596,13.274 -63.785,5.579 -92.496,-14.342 6.746,2.447 15.038,3.383 24.068,3.948 z m 157.591,65.786 c -15.653,-7.044 -20.952,-12.542 -25.208,-16.96 -6.71,-6.967 -11.141,-10.525 -32.087,-10.525 -3.24,0 -6.877,0.085 -10.976,0.257 -18.711,0.76 -45.769,-4.502 -72.555,-13.605 20.875,4.451 41.569,3.18 56.817,-5.393 5.07,-2.852 9.626,-5.414 13.916,-7.693 24.191,22.292 59.528,39.906 80.218,49.101 12.144,5.398 23.958,8.492 35.042,9.272 -15.449,1.832 -30.877,1.976 -45.167,-4.454 z m 14.395,-14.426 c -15.379,-6.833 -50.236,-23.565 -74.427,-44.493 17.445,-7.911 33.897,-10.727 70.022,-9.287 25.849,1.032 53.013,1.181 75.682,-4.677 7.075,11.259 12.588,21.66 11.954,29.91 -0.906,11.798 -8.553,23.354 -19.953,30.154 -16.43,9.803 -38.902,9.228 -63.278,-1.607 z"
   id="path2"
   sodipodi:nodetypes="cccccccccccccccccccsccccccccccccccccccccccccccccccccccccccccccccccccccccsccscccscccccccccscccscccscccccccccccccccssccsccsccccsccccccccccccccccccccccccccccccccscccccsccccccccccccccccccsccccccccccccscscccscccccccccscccccccccccccc" />
</svg>
